<svg width="24" height="24" viewBox="0 0 24 24" fill="none" xmlns="http://www.w3.org/2000/svg">
<path fill-rule="evenodd" clip-rule="evenodd" d="M12 23C18.0751 23 23 18.0751 23 12C23 5.92487 18.0751 1 12 1C5.92487 1 1 5.92487 1 12C1 18.0751 5.92487 23 12 23ZM11.6435 7.35653C11.2881 7.00116 10.7119 7.00116 10.3565 7.35653C10.0012 7.71191 10.0012 8.28809 10.3565 8.64347L13.7131 12L10.3565 15.3565C10.0012 15.7119 10.0012 16.2881 10.3565 16.6435C10.7119 16.9988 11.2881 16.9988 11.6435 16.6435L15.6435 12.6435C15.9988 12.2881 15.9988 11.7119 15.6435 11.3565L11.6435 7.35653Z" fill="black"/>
</svg>
