<svg width="24" height="24" viewBox="0 0 24 24" fill="none" xmlns="http://www.w3.org/2000/svg">
<path fill-rule="evenodd" clip-rule="evenodd" d="M12 23C5.92487 23 1 18.0751 1 12C1 5.92487 5.92487 1 12 1C18.0751 1 23 5.92487 23 12C23 18.0751 18.0751 23 12 23ZM12.3565 7.35653C12.7119 7.00116 13.2881 7.00116 13.6435 7.35653C13.9988 7.71191 13.9988 8.28809 13.6435 8.64347L10.2869 12L13.6435 15.3565C13.9988 15.7119 13.9988 16.2881 13.6435 16.6435C13.2881 16.9988 12.7119 16.9988 12.3565 16.6435L8.35653 12.6435C8.00116 12.2881 8.00116 11.7119 8.35653 11.3565L12.3565 7.35653Z" fill="black"/>
</svg>
